<svg xmlns="http://www.w3.org/2000/svg" xmlns:xlink="http://www.w3.org/1999/xlink" width="1024" height="576" viewBox="0 0 1024 576">
  <defs>
    <clipPath id="clip-Kanban">
      <rect width="1024" height="576"/>
    </clipPath>
  </defs>
  <g id="Kanban" clip-path="url(#clip-Kanban)">
    <g id="Completed" transform="translate(670)">
      <g id="Rectangle_2" data-name="Rectangle 2" transform="translate(20 20)" fill="none" stroke="#000" stroke-width="1">
        <rect width="314" height="536" rx="30" stroke="none"/>
        <rect x="0.5" y="0.5" width="313" height="535" rx="29.5" fill="none"/>
      </g>
      <text id="Completed-2" data-name="Completed" transform="translate(52 62)" fill="#707070" font-size="14" font-family="Inter" font-weight="800"><tspan x="0" y="0">COMPLETED</tspan></text>
      <g id="Task">
        <g id="Rectangle_4" data-name="Rectangle 4" transform="translate(44 87)" fill="none" stroke="#707070" stroke-width="1">
          <rect width="267" height="73" rx="16" stroke="none"/>
          <rect x="0.5" y="0.5" width="266" height="72" rx="15.5" fill="none"/>
        </g>
        <rect id="Rectangle_5" data-name="Rectangle 5" width="163" height="22" rx="5" transform="translate(58 102)" fill="rgba(124,124,124,0.25)"/>
        <rect id="Rectangle_6" data-name="Rectangle 6" width="235" height="13" rx="5" transform="translate(58 131)" fill="rgba(124,124,124,0.25)"/>
        <path id="Path_1" data-name="Path 1" d="M583.129,30.909l4.615,5.178,11.407-10.76" transform="translate(-315 80.272)" fill="none" stroke="#22c55e" stroke-width="3"/>
      </g>
      <g id="Task-2" data-name="Task" transform="translate(0 87)">
        <g id="Rectangle_4-2" data-name="Rectangle 4" transform="translate(44 87)" fill="none" stroke="#707070" stroke-width="1">
          <rect width="267" height="73" rx="16" stroke="none"/>
          <rect x="0.5" y="0.5" width="266" height="72" rx="15.5" fill="none"/>
        </g>
        <rect id="Rectangle_5-2" data-name="Rectangle 5" width="163" height="22" rx="5" transform="translate(58 102)" fill="rgba(124,124,124,0.25)"/>
        <rect id="Rectangle_6-2" data-name="Rectangle 6" width="235" height="13" rx="5" transform="translate(58 131)" fill="rgba(124,124,124,0.25)"/>
        <path id="Path_1-2" data-name="Path 1" d="M583.129,30.909l4.615,5.178,11.407-10.76" transform="translate(-315 80.272)" fill="none" stroke="#22c55e" stroke-width="3"/>
      </g>
      <g id="Task-3" data-name="Task" transform="translate(0 174)">
        <g id="Rectangle_4-3" data-name="Rectangle 4" transform="translate(44 87)" fill="none" stroke="#707070" stroke-width="1">
          <rect width="267" height="73" rx="16" stroke="none"/>
          <rect x="0.5" y="0.5" width="266" height="72" rx="15.5" fill="none"/>
        </g>
        <rect id="Rectangle_5-3" data-name="Rectangle 5" width="163" height="22" rx="5" transform="translate(58 102)" fill="rgba(124,124,124,0.25)"/>
        <rect id="Rectangle_6-3" data-name="Rectangle 6" width="235" height="13" rx="5" transform="translate(58 131)" fill="rgba(124,124,124,0.25)"/>
        <path id="Path_1-3" data-name="Path 1" d="M583.129,30.909l4.615,5.178,11.407-10.76" transform="translate(-315 80.272)" fill="none" stroke="#22c55e" stroke-width="3"/>
      </g>
      <g id="Task-4" data-name="Task" transform="translate(0 261)">
        <g id="Rectangle_4-4" data-name="Rectangle 4" transform="translate(44 87)" fill="none" stroke="#707070" stroke-width="1">
          <rect width="267" height="73" rx="16" stroke="none"/>
          <rect x="0.5" y="0.5" width="266" height="72" rx="15.5" fill="none"/>
        </g>
        <rect id="Rectangle_5-4" data-name="Rectangle 5" width="163" height="22" rx="5" transform="translate(58 102)" fill="rgba(124,124,124,0.25)"/>
        <rect id="Rectangle_6-4" data-name="Rectangle 6" width="235" height="13" rx="5" transform="translate(58 131)" fill="rgba(124,124,124,0.25)"/>
        <path id="Path_1-4" data-name="Path 1" d="M583.129,30.909l4.615,5.178,11.407-10.76" transform="translate(-315 80.272)" fill="none" stroke="#22c55e" stroke-width="3"/>
      </g>
      <g id="Task-5" data-name="Task" transform="translate(0 348)">
        <g id="Rectangle_4-5" data-name="Rectangle 4" transform="translate(44 87)" fill="none" stroke="#707070" stroke-width="1">
          <rect width="267" height="73" rx="16" stroke="none"/>
          <rect x="0.5" y="0.5" width="266" height="72" rx="15.5" fill="none"/>
        </g>
        <rect id="Rectangle_5-5" data-name="Rectangle 5" width="163" height="22" rx="5" transform="translate(58 102)" fill="rgba(124,124,124,0.25)"/>
        <rect id="Rectangle_6-5" data-name="Rectangle 6" width="235" height="13" rx="5" transform="translate(58 131)" fill="rgba(124,124,124,0.25)"/>
        <path id="Path_1-5" data-name="Path 1" d="M583.129,30.909l4.615,5.178,11.407-10.76" transform="translate(-315 80.272)" fill="none" stroke="#22c55e" stroke-width="3"/>
      </g>
    </g>
    <g id="Current" transform="translate(335)">
      <g id="Rectangle_2-2" data-name="Rectangle 2" transform="translate(20 20)" fill="none" stroke="#000" stroke-width="1">
        <rect width="314" height="536" rx="30" stroke="none"/>
        <rect x="0.5" y="0.5" width="313" height="535" rx="29.5" fill="none"/>
      </g>
      <text id="CURRENT-2" data-name="CURRENT" transform="translate(52 62)" fill="#707070" font-size="14" font-family="Inter" font-weight="800"><tspan x="0" y="0">CURRENT</tspan></text>
      <g id="Task-6" data-name="Task">
        <g id="Rectangle_4-6" data-name="Rectangle 4" transform="translate(44 87)" fill="none" stroke="#707070" stroke-width="1">
          <rect width="267" height="73" rx="16" stroke="none"/>
          <rect x="0.5" y="0.5" width="266" height="72" rx="15.5" fill="none"/>
        </g>
        <rect id="Rectangle_5-6" data-name="Rectangle 5" width="163" height="22" rx="5" transform="translate(58 102)" fill="rgba(124,124,124,0.25)"/>
        <rect id="Rectangle_6-6" data-name="Rectangle 6" width="235" height="13" rx="5" transform="translate(58 131)" fill="rgba(124,124,124,0.25)"/>
      </g>
    </g>
    <g id="Queue">
      <g id="Rectangle_2-3" data-name="Rectangle 2" transform="translate(20 20)" fill="none" stroke="#000" stroke-width="1">
        <rect width="314" height="536" rx="30" stroke="none"/>
        <rect x="0.5" y="0.5" width="313" height="535" rx="29.5" fill="none"/>
      </g>
      <text id="queue-2" data-name="queue" transform="translate(52 62)" fill="#707070" font-size="14" font-family="Inter" font-weight="800"><tspan x="0" y="0">QUEUE</tspan></text>
      <g id="Task-7" data-name="Task">
        <g id="Rectangle_4-7" data-name="Rectangle 4" transform="translate(44 87)" fill="none" stroke="#707070" stroke-width="1">
          <rect width="267" height="73" rx="16" stroke="none"/>
          <rect x="0.5" y="0.5" width="266" height="72" rx="15.5" fill="none"/>
        </g>
        <rect id="Rectangle_5-7" data-name="Rectangle 5" width="163" height="22" rx="5" transform="translate(58 102)" fill="rgba(124,124,124,0.25)"/>
        <rect id="Rectangle_6-7" data-name="Rectangle 6" width="235" height="13" rx="5" transform="translate(58 131)" fill="rgba(124,124,124,0.25)"/>
      </g>
      <g id="Task-8" data-name="Task" transform="translate(0 87)">
        <g id="Rectangle_4-8" data-name="Rectangle 4" transform="translate(44 87)" fill="none" stroke="#707070" stroke-width="1">
          <rect width="267" height="73" rx="16" stroke="none"/>
          <rect x="0.5" y="0.5" width="266" height="72" rx="15.5" fill="none"/>
        </g>
        <rect id="Rectangle_5-8" data-name="Rectangle 5" width="163" height="22" rx="5" transform="translate(58 102)" fill="rgba(124,124,124,0.25)"/>
        <rect id="Rectangle_6-8" data-name="Rectangle 6" width="235" height="13" rx="5" transform="translate(58 131)" fill="rgba(124,124,124,0.25)"/>
      </g>
      <g id="Task-9" data-name="Task" transform="translate(0 174)">
        <g id="Rectangle_4-9" data-name="Rectangle 4" transform="translate(44 87)" fill="none" stroke="#707070" stroke-width="1">
          <rect width="267" height="73" rx="16" stroke="none"/>
          <rect x="0.5" y="0.5" width="266" height="72" rx="15.5" fill="none"/>
        </g>
        <rect id="Rectangle_5-9" data-name="Rectangle 5" width="163" height="22" rx="5" transform="translate(58 102)" fill="rgba(124,124,124,0.25)"/>
        <rect id="Rectangle_6-9" data-name="Rectangle 6" width="235" height="13" rx="5" transform="translate(58 131)" fill="rgba(124,124,124,0.25)"/>
      </g>
      <g id="Task-10" data-name="Task" transform="translate(0 261)">
        <g id="Rectangle_4-10" data-name="Rectangle 4" transform="translate(44 87)" fill="none" stroke="#707070" stroke-width="1">
          <rect width="267" height="73" rx="16" stroke="none"/>
          <rect x="0.5" y="0.5" width="266" height="72" rx="15.5" fill="none"/>
        </g>
        <rect id="Rectangle_5-10" data-name="Rectangle 5" width="163" height="22" rx="5" transform="translate(58 102)" fill="rgba(124,124,124,0.25)"/>
        <rect id="Rectangle_6-10" data-name="Rectangle 6" width="235" height="13" rx="5" transform="translate(58 131)" fill="rgba(124,124,124,0.25)"/>
      </g>
      <g id="Task-11" data-name="Task" transform="translate(0 348)">
        <g id="Rectangle_4-11" data-name="Rectangle 4" transform="translate(44 87)" fill="none" stroke="#707070" stroke-width="1">
          <rect width="267" height="73" rx="16" stroke="none"/>
          <rect x="0.5" y="0.5" width="266" height="72" rx="15.5" fill="none"/>
        </g>
        <rect id="Rectangle_5-11" data-name="Rectangle 5" width="163" height="22" rx="5" transform="translate(58 102)" fill="rgba(124,124,124,0.25)"/>
        <rect id="Rectangle_6-11" data-name="Rectangle 6" width="235" height="13" rx="5" transform="translate(58 131)" fill="rgba(124,124,124,0.25)"/>
      </g>
    </g>
    <path id="Path_2" data-name="Path 2" d="M246.445,24.254l4.084,4.084" transform="translate(355 79)" fill="none" stroke="#2563eb" stroke-width="3"/>
    <path id="Path_3" data-name="Path 3" d="M246.445,24.254l4.084,4.084" transform="translate(638.784 -143.191) rotate(90)" fill="none" stroke="#2563eb" stroke-width="3"/>
    <path id="Path_4" data-name="Path 4" d="M246.445,24.254l4.084,4.084" transform="translate(577.191 362.784) rotate(-90)" fill="none" stroke="#2563eb" stroke-width="3"/>
    <path id="Path_5" data-name="Path 5" d="M246.445,24.254l4.084,4.084" transform="translate(860.974 140.593) rotate(180)" fill="none" stroke="#2563eb" stroke-width="3"/>
  </g>
</svg>
