<svg
  viewBox="0 0 237 38"
  xmlns="http://www.w3.org/2000/svg"
  fill="#737373"
>
  <path
    d="M13.6188 34.7844C11.7503 34.8156 9.88888 34.5448 8.10533 33.9824C7.14677 33.6479 6.26907 33.1132 5.52966 32.413C4.79025 31.7129 4.20581 30.8633 3.81458 29.9197C1.89646 25.5477 3.74184 23.7328 4.6259 23.1531C5.20341 22.7804 5.87211 22.5766 6.55765 22.5642C5.17563 21.6533 4.04815 20.4005 3.28277 18.9254C1.49192 15.4264 2.10554 10.8779 4.77363 7.86469C7.44172 4.85146 11.7507 3.16726 17.5459 2.88999C18.0005 2.86937 18.4277 2.85791 18.8254 2.85791C21.2617 2.85791 23.1435 3.27954 24.7343 4.18236C27.007 5.4839 29.5069 8.20611 28.9592 11.5951C28.6387 13.6162 27.1706 14.8811 25.1207 14.9131C25.7729 15.2293 26.3907 15.6133 26.9638 16.0588C29.3069 17.8805 30.4591 20.4813 30.2091 23.3754C30.0159 25.5706 29.2296 27.7291 28.1046 29.1383C26.7519 30.799 25.0188 32.1028 23.0548 32.9375C21.3299 33.7762 19.2254 34.3353 16.7937 34.6011C15.7394 34.7194 14.6796 34.7806 13.6188 34.7844Z"
    fill="none"
  />
  <path d="M18.8324 5.14878C20.4823 5.14878 22.1709 5.35731 23.6049 6.17764C25.3458 7.16983 27.0434 9.08088 26.7025 11.2325C26.5321 12.3187 25.8435 12.6211 25.0321 12.6211C24.5924 12.6089 24.1551 12.5497 23.7276 12.4447C22.789 12.2408 21.5141 11.9062 20.3187 11.9062C19.3528 11.9062 18.4415 12.1354 17.8188 12.8228C17.137 13.5721 17.9642 14.7086 18.6642 15.089C18.6885 15.1026 18.7135 15.1148 18.7392 15.1257C21.0686 16.0606 23.5277 16.2874 25.5571 17.8754C27.248 19.193 28.1184 21.0101 27.9275 23.18C27.798 24.6832 27.2639 26.5209 26.3162 27.7079C25.1861 29.0933 23.7351 30.177 22.0913 30.8632C20.5899 31.601 18.7377 32.0906 16.5347 32.332C15.5626 32.4404 14.5855 32.4971 13.6075 32.5016C11.9837 32.5316 10.3656 32.2996 8.81453 31.8142C8.15671 31.5789 7.55544 31.2065 7.04991 30.7213C6.54438 30.236 6.14593 29.6489 5.88053 28.998C5.44191 27.9989 4.68057 25.8473 5.85098 25.0796C6.12527 24.9153 6.44132 24.8356 6.76004 24.8505C6.9464 24.8505 7.13503 24.8665 7.31685 24.8826C8.29636 24.9788 9.28269 25.0613 10.2713 25.0613C10.644 25.0613 11.019 25.0613 11.394 25.0201C11.8485 24.9857 15.1188 24.6763 14.2984 23.6452C14.1347 23.4755 13.928 23.3543 13.7007 23.2946C12.7917 22.9715 11.9008 22.6622 11.019 22.3001C8.70316 21.3538 6.49415 20.2035 5.30556 17.8777C3.92379 15.183 4.50104 11.6198 6.47143 9.39939C9.22815 6.28763 13.7075 5.37564 17.6551 5.18774C18.0415 5.16941 18.4324 5.15795 18.8278 5.15795L18.8324 5.14878ZM18.8278 0.575093C18.396 0.575093 17.9415 0.575086 17.4415 0.611749C11.0144 0.916509 6.18279 2.84589 3.08062 6.34032C-0.20108 10.0456 -0.948782 15.6527 1.26251 19.9766C1.61533 20.6688 2.0372 21.323 2.52156 21.9289C1.23752 23.2007 -0.412433 25.9504 1.73522 30.8449C2.87154 33.4227 4.87147 35.3086 7.38502 36.1541C9.40074 36.7949 11.5056 37.1044 13.6189 37.0707C14.7579 37.0665 15.8959 37.0007 17.0279 36.8736C19.6982 36.5826 22.0413 35.9571 23.9935 35.0153C26.2804 34.0347 28.2977 32.5102 29.8729 30.5722C31.8865 28.0516 32.3592 24.8436 32.4705 23.5719C32.6209 22.0704 32.4399 20.554 31.9405 19.1314C31.4411 17.7087 30.6357 16.4152 29.582 15.3434C30.4495 14.406 31.0138 13.2248 31.2001 11.9566C31.7933 8.21242 29.6933 4.37657 25.8503 2.18825C23.9345 1.09753 21.6391 0.565918 18.8346 0.565918L18.8278 0.575093Z" />
  <path
    d="M220.164 34.5482C219.238 34.5462 218.313 34.4896 217.394 34.3787C213.964 33.9777 211.16 33.123 209.058 31.8352C207.346 30.788 206.178 29.0396 205.767 26.9155C204.858 22.2249 207.058 20.8638 208.039 20.4995C208.435 20.3498 208.853 20.2723 209.276 20.2703C209.537 20.2714 209.798 20.2967 210.055 20.346C208.91 19.1489 208.088 17.6761 207.667 16.0679C206.689 12.2549 208.287 7.95849 211.551 5.61436C213.823 3.97828 216.746 3.14648 220.205 3.14648C221.846 3.15916 223.484 3.31711 225.098 3.61852C227.177 3.99202 229.82 4.65654 231.814 6.48281C233.754 8.26096 235.573 11.469 234.314 14.6541C233.684 16.2328 232.409 17.138 230.814 17.138C230.487 17.1372 230.16 17.1011 229.841 17.0303C230.408 17.4837 230.926 17.996 231.386 18.5586C233.273 20.8501 233.825 23.6502 232.943 26.4182C232.275 28.5172 231.034 30.442 229.625 31.5671C227.942 32.8857 225.967 33.7713 223.868 34.1472C222.652 34.4207 221.41 34.5552 220.164 34.5482Z"
    fill="none"
  />
  <path d="M220.209 5.44709C221.718 5.46013 223.222 5.60657 224.705 5.88474C226.673 6.23762 228.77 6.80131 230.289 8.18763C231.77 9.54415 233.016 11.7875 232.2 13.8085C231.889 14.5899 231.384 14.8557 230.809 14.8557C230.234 14.8557 229.614 14.6013 229.032 14.3264C227.895 13.7902 226.234 12.908 224.759 12.908C224.2 12.8943 223.65 13.0543 223.184 13.3663C222.346 13.9437 222.912 15.2384 223.509 15.7677L223.575 15.8181C225.643 17.2502 227.991 18.0202 229.627 20.0252C230.991 21.6864 231.445 23.6525 230.764 25.7285C230.309 27.163 229.382 28.8357 228.198 29.7821C226.791 30.8809 225.138 31.6136 223.384 31.9154C222.324 32.1547 221.239 32.2708 220.153 32.2614C219.317 32.2577 218.482 32.2057 217.653 32.1056C215.169 31.8146 212.398 31.2027 210.235 29.8783C209.646 29.5016 209.142 29.0042 208.756 28.4183C208.37 27.8325 208.11 27.1713 207.994 26.4778C207.787 25.4054 207.514 23.1369 208.828 22.6511C208.973 22.5973 209.128 22.5709 209.283 22.5732C209.631 22.5961 209.974 22.6734 210.298 22.8024C211.581 23.2618 212.9 23.6114 214.241 23.8473C214.794 23.9276 215.351 23.9712 215.91 23.9779C216.819 23.9779 217.698 23.8175 217.378 23.1507C217.257 22.9478 217.082 22.7834 216.873 22.6763C216.069 22.1608 215.257 21.6566 214.476 21.1067C212.43 19.6654 210.526 18.0499 209.876 15.5179C209.123 12.5803 210.467 9.23481 212.878 7.4979C215.005 5.9741 217.607 5.45395 220.214 5.45395L220.209 5.44709ZM220.214 0.871094C216.273 0.871094 212.919 1.84495 210.244 3.76517C206.228 6.6455 204.267 11.9456 205.471 16.6568C205.663 17.4102 205.93 18.1419 206.269 18.8405C204.724 19.7914 202.519 22.1058 203.542 27.36C204.078 30.1258 205.621 32.4149 207.885 33.8012C210.303 35.2815 213.339 36.2164 217.139 36.6632C218.145 36.7829 219.157 36.8448 220.171 36.8488C221.572 36.8577 222.97 36.7093 224.339 36.4066C226.782 35.9577 229.08 34.9191 231.039 33.3796C233.557 31.3677 234.725 28.3385 235.109 27.1355C235.586 25.7066 235.743 24.189 235.57 22.6914C235.397 21.1939 234.897 19.7536 234.107 18.4739C235.159 17.7508 235.968 16.7212 236.425 15.5225C237.825 12.0051 236.62 7.7958 233.352 4.80319C230.929 2.5828 227.898 1.806 225.507 1.3798C223.761 1.05459 221.991 0.884362 220.216 0.871094H220.214Z" />
  <path
    d="M42.9337 35.1163C40.949 35.1315 38.9713 34.8764 37.0543 34.3578C34.3272 33.5994 32.0773 32.2955 30.3591 30.4968C28.5024 28.5514 28.1706 26.5188 27.8797 24.7292C27.4479 22.0758 27.4251 20.1716 27.3888 17.7587L27.3751 16.9155C27.3547 15.6185 27.2547 14.4774 27.1479 13.2698C27.0342 11.9797 26.9206 10.6484 26.9047 9.11772C26.8933 7.83681 27.4706 6.71172 28.4501 6.11137C29.9932 5.16272 36.2612 4.85109 38.8838 4.76173H39.0929C40.877 4.76173 41.886 5.52248 42.4178 6.16179C42.4542 6.20303 42.486 6.24657 42.5178 6.28781C42.6 6.12801 42.6942 5.9748 42.7996 5.82953C43.2132 5.2475 44.02 4.51195 45.5041 4.28968C45.9586 4.22323 46.4131 4.14991 46.8677 4.07887C48.9789 3.74891 51.1607 3.40519 53.4015 3.40519C54.6069 3.39703 55.81 3.51219 56.9923 3.7489C57.6134 3.8529 58.193 4.1308 58.665 4.55091C59.1354 4.9794 59.6945 5.77224 59.6922 7.10127C59.6922 9.44769 59.8467 11.8904 60.0013 14.2505C60.0763 15.3962 60.1536 16.5832 60.2126 17.7541C60.2535 18.5699 60.3399 19.2596 60.424 19.9241C60.6513 21.7321 60.8626 23.4392 59.9536 26.0812C58.8172 29.4061 56.6059 31.7066 53.2242 33.1113C49.9525 34.4359 46.4594 35.1165 42.9337 35.1163Z"
    fill="none"
  />
  <path d="M53.4039 5.68984C54.4566 5.68252 55.5074 5.78232 56.5402 5.98772C56.7612 6.01593 56.9703 6.10469 57.1447 6.24436C57.2474 6.35926 57.3257 6.49421 57.3745 6.64084C57.4234 6.78747 57.4419 6.94264 57.4288 7.09676C57.4288 10.6737 57.772 14.2941 57.9515 17.8665C58.1083 20.9851 58.8606 22.3187 57.8152 25.3251C56.8629 28.0886 55.0744 29.8644 52.3608 30.9895C49.3619 32.1968 46.1629 32.8189 42.9339 32.8226C41.1536 32.8373 39.3795 32.6107 37.659 32.149C35.4841 31.5417 33.5137 30.4991 31.9979 28.9066C30.6956 27.5432 30.407 26.1569 30.1229 24.3558C29.6684 21.5809 29.6934 19.6813 29.648 16.8766C29.6025 14.0719 29.1934 11.9088 29.1798 9.08573C29.1798 8.6939 29.3002 8.26081 29.6343 8.05687C29.832 7.93543 31.8797 7.28237 38.9522 7.04177H39.0863C39.6726 7.04177 40.2999 7.17697 40.6771 7.6238C40.9521 7.95606 41.0226 8.41206 41.0748 8.84284C41.4339 11.7965 41.543 14.7708 41.6566 17.7405C41.7134 19.2711 41.7044 19.8875 41.7975 21.4067C41.8839 22.8068 41.6271 25.1143 43.0839 25.8727C43.3675 26.0258 43.6827 26.1098 44.0043 26.1179C44.1836 26.1194 44.3614 26.0843 44.527 26.0148C45.9065 25.4282 45.8269 22.4975 45.7292 21.2693C45.536 18.8747 45.3429 17.399 45.1224 15.0045C44.9861 13.5173 44.7974 12.0256 44.6838 10.5408C44.5611 8.9597 43.5975 6.8745 45.8338 6.53308C48.3155 6.16416 50.8677 5.67379 53.3994 5.67379L53.4039 5.68984ZM53.3994 1.09093C50.9836 1.09093 48.7109 1.4484 46.5156 1.79211C46.061 1.86315 45.6065 1.93417 45.1679 2.00062C44.1154 2.14046 43.1128 2.53774 42.2475 3.15781C41.2634 2.67994 40.1831 2.43762 39.0908 2.44975H38.8045C29.4866 2.76597 27.873 3.75816 27.2662 4.13167C25.5958 5.15593 24.6118 7.01887 24.6299 9.11552C24.6436 10.7356 24.764 12.115 24.8822 13.4486C24.9822 14.6127 25.0799 15.7148 25.1095 16.9293C25.1095 17.218 25.114 17.4976 25.1231 17.768C25.1549 20.1762 25.1845 22.2546 25.6436 25.0753C25.9549 26.9864 26.3799 29.6032 28.7275 32.0642C30.7343 34.1654 33.3342 35.6732 36.4545 36.5439C38.5691 37.1176 40.7509 37.4005 42.9407 37.3849C46.7642 37.3823 50.5519 36.6418 54.0994 35.2034C58.0629 33.5559 60.7583 30.7306 62.1082 26.8053C63.1945 23.6569 62.9241 21.5076 62.6877 19.6103C62.6059 18.9572 62.5286 18.3408 62.4923 17.6121C62.4332 16.4229 62.3536 15.2268 62.2787 14.0719C62.1196 11.6407 61.9696 9.34696 61.9741 7.07844C61.9929 6.28413 61.8449 5.49479 61.5398 4.76223C61.2347 4.02967 60.7794 3.37045 60.2037 2.82784C59.428 2.13454 58.4797 1.66719 57.4606 1.47589C56.1272 1.20815 54.7703 1.07763 53.4108 1.08635L53.3994 1.09093Z" />
  <path
    d="M136.776 35.075C133.381 35.075 130.165 34.4678 127.476 33.3221C124.874 32.2108 122.808 30.6274 121.34 28.6155C119.749 26.4409 119.686 24.3855 119.627 22.5707C119.54 19.8829 119.761 17.9878 120.038 15.5933L120.133 14.7569C120.281 13.4669 120.329 12.3234 120.379 11.1136C120.433 9.8189 120.49 8.483 120.674 6.96378C120.829 5.69204 121.547 4.65173 122.595 4.18427C122.822 4.07887 123.456 3.79932 126.076 3.79932C127.924 3.79932 130.292 3.9391 133.122 4.21636C134.603 4.36072 135.785 5.01607 136.449 6.06325L136.531 6.20302C136.632 6.05361 136.745 5.91261 136.869 5.7814C137.356 5.26124 138.249 4.63568 139.746 4.61048C140.201 4.61048 140.655 4.59215 141.126 4.58069C141.951 4.56007 142.805 4.53944 143.662 4.53944C145.91 4.53944 148.564 4.66319 151.207 5.57747C151.81 5.76323 152.349 6.11477 152.764 6.59257C153.176 7.08064 153.626 7.93993 153.446 9.2575C153.139 11.5833 152.991 14.0237 152.832 16.3838C152.757 17.5296 152.682 18.7188 152.589 19.8874C152.526 20.7032 152.521 21.3975 152.519 22.0689C152.519 23.8883 152.501 25.6091 151.257 28.1114C149.694 31.2575 147.217 33.2488 143.68 34.1997C141.426 34.789 139.105 35.0832 136.776 35.075Z"
    fill="none"
  />
  <path d="M126.072 6.09064C127.522 6.09064 129.708 6.18458 132.89 6.49621C133.51 6.55808 134.183 6.76661 134.519 7.29594C134.747 7.66256 134.76 8.12313 134.747 8.5585C134.722 11.5374 134.447 14.4979 134.176 17.4561C134.037 18.9822 133.949 19.5917 133.844 21.1224C133.749 22.5225 133.194 24.7887 134.542 25.7213C134.854 25.9515 135.228 26.0823 135.615 26.0971C135.73 26.0967 135.844 26.0813 135.956 26.0513C137.399 25.648 137.699 22.7333 137.758 21.5028C137.876 19.1014 137.874 17.6074 137.965 15.2128C138.021 13.7188 138.026 12.234 138.106 10.7285C138.187 9.14511 137.503 6.94305 139.762 6.90639C141.04 6.88577 142.339 6.83536 143.639 6.83536C145.951 6.83536 148.26 6.99346 150.446 7.75193C150.659 7.80873 150.853 7.92186 151.007 8.0796C151.093 8.20747 151.153 8.35154 151.182 8.50315C151.211 8.65475 151.21 8.81076 151.178 8.9618C150.71 12.5089 150.591 16.1431 150.307 19.7132C150.062 22.825 150.626 24.2456 149.21 27.0916C147.91 29.7061 145.908 31.2322 143.074 31.993C141.011 32.5288 138.89 32.7968 136.76 32.7904C133.885 32.7904 130.917 32.3138 128.351 31.2162C126.272 30.3317 124.454 29.037 123.154 27.2612C122.04 25.7373 121.94 24.3281 121.883 22.5019C121.792 19.6926 122.058 17.8113 122.377 15.0249C122.695 12.2385 122.576 10.0411 122.915 7.24781C122.961 6.85827 123.142 6.44581 123.499 6.2877C123.613 6.235 124.301 6.09751 126.06 6.09751L126.072 6.09064ZM126.06 1.51465C123.333 1.51465 122.333 1.79421 121.658 2.09668C119.872 2.8941 118.654 4.61725 118.402 6.69329C118.208 8.29729 118.149 9.68359 118.093 11.0218C118.045 12.1904 117.997 13.2949 117.865 14.5025C117.831 14.7889 117.799 15.0662 117.768 15.3366C117.493 17.7265 117.252 19.7934 117.345 22.6508C117.406 24.5848 117.49 27.2337 119.502 29.9834C121.217 32.3321 123.592 34.1675 126.583 35.4393C129.574 36.711 133.072 37.3755 136.769 37.3755C139.294 37.3825 141.809 37.0621 144.253 36.4223C148.394 35.3087 151.43 32.8614 153.275 29.147C154.757 26.1681 154.769 23.9982 154.778 22.0871C154.778 21.4295 154.778 20.8085 154.841 20.0798C154.934 18.8951 155.012 17.699 155.087 16.5418C155.241 14.1129 155.389 11.8169 155.684 9.56903C155.806 8.78396 155.762 7.98175 155.554 7.21518C155.347 6.44861 154.981 5.73502 154.48 5.12136C153.8 4.33155 152.919 3.74436 151.932 3.42341C148.951 2.38998 145.935 2.25707 143.642 2.25707C142.758 2.25707 141.889 2.2777 141.051 2.29833C140.596 2.29833 140.142 2.32123 139.687 2.3281C138.625 2.32801 137.58 2.59082 136.642 3.09345C135.646 2.43908 134.504 2.0453 133.319 1.94773C130.424 1.66589 127.983 1.52153 126.063 1.52153L126.06 1.51465Z" />
  <path
    d="M69.049 34.7932C68.4104 34.7932 67.7672 34.7566 67.1445 34.7222C66.7286 34.6993 66.3355 34.6764 65.965 34.6649C64.7832 34.6328 61.8538 34.3899 60.1652 32.8638C58.6653 31.505 58.8834 29.555 59.0016 28.5101C59.0175 28.3658 59.0334 28.226 59.0425 28.0977C59.1016 27.2361 59.1622 26.3738 59.2243 25.5106C59.2675 24.9332 59.3516 23.7371 59.3516 23.7371C59.5016 22.0689 59.622 20.3595 59.7379 18.6959C59.847 17.1744 59.9652 15.6025 60.0902 14.0512C60.2107 12.6626 60.3402 11.2579 60.472 9.87621C60.4925 9.67686 60.5061 9.47751 60.522 9.28274C60.5902 8.36617 60.6675 7.32585 61.1425 6.38407C61.5424 5.59124 62.5538 4.26221 64.8332 4.26221C65.015 4.26221 65.2082 4.26222 65.4014 4.28742C67.0332 4.4272 68.7013 4.55093 70.3149 4.66779C73.3148 4.89694 76.4147 5.12608 79.4759 5.47896C82.9281 5.88912 87.8233 6.86986 90.4823 10.6438C90.5233 10.6988 90.5642 10.7607 90.6051 10.8203C92.5664 13.7396 92.9664 17.7198 91.6778 21.4709C90.4642 24.9997 87.9802 27.5981 84.8598 28.5995C83.3043 29.0788 81.6841 29.3107 80.0577 29.2869C78.6406 29.2672 77.2256 29.1685 75.8192 28.9913C75.7374 29.6215 75.6488 30.0637 75.6056 30.2562C75.1101 32.5247 73.7579 33.4642 72.3671 34.1677C71.508 34.603 70.4853 34.7932 69.049 34.7932Z"
    fill="none"
  />
  <path d="M64.8332 6.56093C64.9513 6.56093 65.0763 6.56093 65.2081 6.57697C69.8671 6.98027 74.5556 7.20711 79.2099 7.76164C82.5507 8.15806 86.5824 9.07234 88.6301 11.9779C88.6619 12.026 88.696 12.0718 88.7278 12.1176C91.8254 16.728 89.6187 24.6747 84.1825 26.423C82.8494 26.83 81.4617 27.0256 80.069 27.0028C77.9577 27.0028 75.826 26.6636 73.7374 26.4712C73.7275 27.5794 73.6133 28.6843 73.3965 29.7708C73.1351 30.9647 72.5829 31.5169 71.3716 32.1218C70.7693 32.4197 69.9512 32.5045 69.058 32.5045C68.0762 32.5045 67.0126 32.4037 66.0377 32.3762C64.8195 32.3418 62.6832 32.0554 61.6924 31.1594C60.9288 30.472 61.256 29.1544 61.3174 28.2516C61.4174 26.8149 61.5242 25.3759 61.6242 23.9391C61.9151 20.7174 62.0787 17.4819 62.3651 14.2578C62.4832 12.8738 62.6098 11.4898 62.7446 10.1058C62.9173 8.30929 62.7628 6.56093 64.8422 6.56093H64.8332ZM75.96 21.9135C76.6123 21.9135 77.3236 21.2261 77.6895 20.337C78.2872 18.8499 78.4236 17.0923 78.4713 15.5021C78.4987 14.7184 78.4423 13.934 78.3031 13.1625C78.1895 12.553 77.3941 11.9275 76.5987 11.9275C75.9714 11.9275 75.3419 12.317 75.0442 13.4054C74.3283 16.0085 74.2737 17.2596 74.676 20.0506C74.8715 21.4002 75.3919 21.9204 75.96 21.9204V21.9135ZM64.8422 1.98494C62.2923 1.98494 60.2083 3.21316 59.1265 5.36022C58.4447 6.70988 58.3447 8.04807 58.2652 9.12504C58.2516 9.30377 58.2379 9.48709 58.2197 9.6704C58.0857 11.0613 57.9561 12.4751 57.8357 13.866C57.6993 15.4356 57.588 17.0167 57.4811 18.5451C57.3652 20.1881 57.2539 21.8883 57.0971 23.5336V23.5771V23.6206C57.0584 24.1935 57.0152 24.7663 56.9743 25.3346L56.7903 27.9423C56.7903 28.0018 56.7721 28.137 56.7584 28.2562C56.6175 29.505 56.2903 32.4289 58.6629 34.576C60.8288 36.5374 64.1377 36.9132 65.9172 36.9636C66.2558 36.9636 66.6331 36.9957 67.0331 37.0163C67.6853 37.0553 68.3626 37.0942 69.0648 37.0942C70.183 37.0942 71.8488 37.0049 73.3829 36.2372C74.9169 35.4696 76.81 34.2162 77.6441 31.4871C78.435 31.5513 79.2349 31.5925 80.069 31.5925C81.9272 31.6143 83.7774 31.3437 85.5529 30.7905C89.3596 29.5669 92.3708 26.4368 93.8253 22.2297C95.348 17.7981 94.848 13.064 92.489 9.54666C92.439 9.47333 92.389 9.39771 92.3367 9.31751C89.155 4.80111 83.6234 3.66456 79.7417 3.20398C76.6282 2.83277 73.5033 2.60364 70.4784 2.38366C68.8739 2.26451 67.2126 2.15451 65.5968 2.00327C65.3377 1.98036 65.0809 1.97119 64.8332 1.97119L64.8422 1.98494Z" />
  <path
    d="M93.7683 34.2C92.6683 34.2 91.3298 33.5814 90.8139 31.8559C90.5858 31.1747 90.4639 30.462 90.4525 29.7432C90.3616 27.6213 90.2548 25.708 90.1366 24.0536C89.9593 21.6201 89.8093 19.0124 89.6934 16.2994C89.6934 16.0702 89.6207 15.5111 89.5548 14.9245C88.9798 9.84214 88.7685 6.15751 91.3093 5.0393C92.4593 4.53289 93.7842 4.46873 94.8092 4.46873C95.3092 4.46873 95.7932 4.48478 96.2614 4.50082C96.6614 4.51686 97.0409 4.53061 97.3705 4.53061C97.4977 4.53061 97.6227 4.53061 97.7409 4.53061C99.1295 4.46645 100.554 4.38395 101.929 4.30146C103.493 4.2121 105.111 4.11814 106.702 4.0471C107.32 4.01961 107.879 4.00586 108.411 4.00586C111.797 4.00586 116.647 4.49623 119.622 8.73996C121.158 10.9283 122.004 13.6505 122.14 16.8356C122.408 23.1508 120.656 27.5641 116.786 30.3298C112.824 33.1437 107.825 33.6661 104.416 33.8128L99.5317 33.9869L93.8933 34.1932L93.7683 34.2Z"
    fill="none"
  />
  <path d="M108.406 6.29004C111.956 6.29004 115.577 6.93622 117.765 10.0571C119.05 11.8903 119.751 14.1817 119.867 16.9314C120.056 21.3631 119.27 25.742 115.47 28.455C112.288 30.7465 108.132 31.3629 104.316 31.5278L99.45 31.702L93.8093 31.9082H93.7684C93.3729 31.9082 93.1047 31.647 92.9638 31.1246C92.8014 30.6489 92.7177 30.1496 92.7161 29.6466C92.6237 27.4881 92.5169 25.5686 92.3957 23.8882C92.2184 21.4639 92.0722 18.9013 91.9571 16.2005C91.8934 14.6698 90.7003 7.80466 92.2116 7.14015C92.907 6.83539 93.8411 6.75978 94.8024 6.75978C95.6887 6.75978 96.5978 6.82395 97.3637 6.82395C97.5296 6.82395 97.6887 6.82395 97.8387 6.82395C100.82 6.68417 103.811 6.47564 106.8 6.34274C107.329 6.31982 107.868 6.30379 108.406 6.30379V6.29004ZM105.563 26.308C107.554 26.308 107.47 17.793 107.427 16.6977C107.357 14.9196 107.502 12.7358 106.518 11.157C106.118 10.5108 105.45 10.0342 104.886 10.0365C104.432 10.0365 104.036 10.3527 103.918 11.1524C103.568 13.5149 103.691 15.9209 103.623 18.2994C103.566 20.0753 103.132 25.2997 105.213 26.2255C105.324 26.2784 105.445 26.3065 105.568 26.308H105.563ZM108.411 1.72093C107.847 1.72093 107.257 1.73468 106.604 1.76446C104.993 1.8355 103.368 1.92945 101.795 2.0211C100.432 2.09901 99.0091 2.1815 97.6319 2.25025C97.5614 2.25025 97.4728 2.25025 97.3682 2.25025C97.0796 2.25025 96.7205 2.2365 96.341 2.22275C95.8751 2.20671 95.3478 2.18837 94.807 2.18608C93.5615 2.18608 91.9343 2.27316 90.398 2.94913C86.8595 4.49355 86.8936 8.76478 86.9163 10.1717C86.9601 11.8477 87.0891 13.5204 87.3027 15.1831C87.3549 15.6414 87.4208 16.2211 87.4277 16.3975C87.5458 19.1289 87.6958 21.7641 87.8822 24.2228C87.9981 25.8474 88.1095 27.7401 88.1913 29.839C88.2139 30.7748 88.3763 31.7018 88.6731 32.5888C89.423 34.9673 91.4003 36.4842 93.7865 36.4842H93.9979L99.6318 36.278L104.493 36.1038H104.529C108.234 35.9434 113.675 35.3637 118.115 32.1946C120.668 30.3789 122.559 27.7693 123.499 24.7658C124.254 22.4515 124.558 19.8232 124.426 16.7321C124.272 13.1002 123.29 9.96548 121.495 7.41283C117.495 1.70946 110.668 1.70947 108.425 1.70947L108.411 1.72093Z" />
  <path
    d="M165.095 34.6106C164.523 34.6106 163.941 34.5831 163.361 34.5327C161.102 34.3333 159.271 33.8911 157.741 33.1762C154.8 31.8013 152.637 29.3174 151.48 26.0131C149.946 21.6296 150.344 15.9469 152.491 11.5359C154.791 6.81096 159.289 3.66024 164.232 3.30965L164.754 3.26611H165.323C168.643 3.26611 171.841 4.43016 174.254 5.44527C174.988 5.71503 175.64 6.1703 176.149 6.76742C177.724 8.74722 177.074 12.0583 175.999 13.6875C175.695 14.1864 175.269 14.5985 174.763 14.8849C174.256 15.1712 173.685 15.3222 173.104 15.3236C172.59 15.31 172.081 15.2236 171.591 15.067C171.456 15.0303 171.316 14.9914 171.168 14.957C170.747 14.8579 170.316 14.8041 169.884 14.7966C169.116 14.7966 167.954 14.7966 167.723 17.8809C167.402 22.12 168.118 22.7249 168.354 22.922C168.442 22.9982 168.535 23.0671 168.634 23.1282C168.879 23.0066 169.118 22.872 169.35 22.7249C169.802 22.4398 170.272 22.1834 170.757 21.9573C171.228 21.7408 171.74 21.6268 172.259 21.6228C173.079 21.6228 175.07 21.9573 175.849 25.0599C176.072 26.0295 176.2 27.0188 176.231 28.0136C176.44 32.3421 171.07 34.2485 166.407 34.5716C165.975 34.5945 165.534 34.6106 165.095 34.6106Z"
    fill="none"
  />
  <path d="M165.323 5.55732C168.091 5.55732 170.85 6.4968 173.379 7.56003C173.759 7.68737 174.102 7.90782 174.377 8.20163C175.184 9.21673 174.757 11.4348 174.107 12.4202C173.8 12.8784 173.472 13.032 173.104 13.032C172.686 13.032 172.216 12.8441 171.659 12.7203C171.077 12.5836 170.482 12.5113 169.884 12.5049C167.125 12.5049 165.709 14.3541 165.457 17.7065C165.3 19.7963 165.109 23.1693 166.893 24.6793C167.552 25.2361 168.104 25.4446 168.611 25.4446C169.643 25.4446 170.491 24.5876 171.679 24.0537C171.861 23.9678 172.058 23.921 172.259 23.9163C173.761 23.9163 173.904 27.1403 173.954 28.1394C174.097 31.1182 168.436 32.1264 166.243 32.2777C165.859 32.3052 165.473 32.3166 165.089 32.3166C164.575 32.3166 164.061 32.2937 163.552 32.2502C161.914 32.1058 160.193 31.7919 158.693 31.1045C151.978 27.9492 151.648 18.4374 154.523 12.5439C156.396 8.69658 160.112 5.89875 164.4 5.5917L164.855 5.55503H165.323V5.55732ZM165.323 0.972168H164.655L164.466 0.98821L164.052 1.02259C158.309 1.43504 153.098 5.07382 150.444 10.5228C148.003 15.5365 147.576 21.7623 149.33 26.7714C150.694 30.6668 153.269 33.6021 156.773 35.2497C158.541 36.0792 160.637 36.5902 163.157 36.8124C163.802 36.8697 164.452 36.8972 165.089 36.8972C165.58 36.8972 166.073 36.8812 166.555 36.8491C168.617 36.6959 170.648 36.2596 172.593 35.5521C173.935 35.0669 175.17 34.3228 176.229 33.3615C176.982 32.6779 177.576 31.8353 177.968 30.8939C178.361 29.9525 178.543 28.9353 178.502 27.9148V27.8942C178.465 26.7551 178.319 25.6223 178.063 24.512C177.835 23.5196 177.42 22.5806 176.841 21.7463C176.326 21.0037 175.642 20.3966 174.846 19.9763C174.051 19.556 173.166 19.3347 172.268 19.3311C171.459 19.3337 170.659 19.5037 169.918 19.8306C169.918 19.3723 169.943 18.7812 169.998 18.0502C170.017 17.7297 170.064 17.4115 170.138 17.0992C170.322 17.1187 170.504 17.1493 170.684 17.1909L170.998 17.2734C171.684 17.485 172.396 17.5991 173.113 17.6125C174.069 17.6095 175.008 17.3645 175.844 16.9C176.681 16.4356 177.388 15.7666 177.902 14.9545C179.347 12.7616 180.313 8.32537 177.931 5.33047C177.186 4.43172 176.224 3.74128 175.138 3.32547C172.525 2.23246 169.052 0.974462 165.323 0.974462V0.972168Z" />
  <path
    d="M197.106 35.0338C196.015 35.0476 194.95 34.7025 194.072 34.0508C193.042 33.2878 192.277 32.2039 191.631 31.0719C191.301 31.7958 190.752 32.3957 190.063 32.7859C189.503 33.0994 188.871 33.2575 188.231 33.2442C187.45 33.2134 186.676 33.0857 185.927 32.8638C185.715 32.8088 185.454 32.7424 185.349 32.7264C183.531 32.4491 181.668 32.2085 179.868 31.9771L179.166 31.8877C177.541 31.6769 176.325 31.0559 175.55 30.0385C174.35 28.462 174.609 26.5257 174.818 24.9699C174.868 24.5986 174.916 24.2458 174.945 23.9044C175.257 20.3687 175.827 16.8513 176.382 13.4509L176.448 13.0315C176.718 11.3794 176.995 9.66999 177.234 7.99037C177.257 7.83455 177.27 7.58708 177.284 7.32357C177.361 6.00141 177.538 2.9011 180.516 2.31679C180.692 2.2831 180.87 2.26699 181.05 2.26867C181.825 2.26867 184.834 2.56885 187.547 2.9561C193.39 3.79477 194.272 4.44324 194.879 5.27044C195.518 6.12336 195.824 7.18368 195.738 8.2493C196.804 7.43873 197.915 6.68903 199.065 6.0037L199.231 5.90747C200.04 5.43314 200.876 4.94277 201.958 4.94277C203.492 4.94277 204.501 5.96245 204.833 6.297C207.374 8.86111 208.492 11.164 208.242 13.3363C207.894 16.4412 204.306 18.3614 201.685 19.7523L201.126 20.0548C201.851 21.0561 203.399 22.5753 204.137 23.2948C205.317 24.4405 206.006 25.128 206.41 25.7971C207.092 26.8855 207.301 28.0885 206.994 29.1678C206.462 31.0307 204.494 32.1466 202.16 33.2923C201.899 33.4207 201.653 33.5421 201.494 33.6292C200.251 34.3372 198.747 35.0338 197.106 35.0338Z"
    fill="none"
  />
  <path d="M181.049 4.57155C182.245 4.57155 192.326 5.65998 193.054 6.64759C193.849 7.72914 193.354 8.96881 192.929 10.1283C192.758 10.5866 192.006 13.1232 192.817 13.1232C193.025 13.0991 193.22 13.0147 193.381 12.8803C195.654 11.2763 197.781 9.41104 200.199 7.99952C200.928 7.57332 201.442 7.24565 201.953 7.24565C202.346 7.24565 202.735 7.43813 203.219 7.93308C204.446 9.17274 206.196 11.2052 205.985 13.098C205.715 15.4971 200.985 17.4517 199.217 18.5401C198.978 18.6633 198.774 18.8444 198.622 19.0671C197.549 20.9713 203.553 25.5496 204.496 27.0528C204.651 27.2691 204.759 27.5155 204.814 27.7763C204.868 28.0371 204.869 28.3065 204.815 28.5674C204.455 29.8323 201.519 31.0513 200.424 31.6448C199.451 32.1741 198.249 32.7493 197.101 32.7493C196.495 32.7605 195.902 32.5714 195.413 32.2108C193.924 31.1063 192.992 28.6682 191.985 26.9405C191.654 26.3768 191.17 25.254 190.638 25.2517C190.465 25.2517 190.286 25.3731 190.104 25.6779C189.342 26.9519 190.558 29.8666 188.924 30.8084C188.708 30.9184 188.468 30.9704 188.227 30.9596C187.397 30.9596 186.297 30.5609 185.683 30.467C183.604 30.1508 181.531 29.8896 179.45 29.6215C176.004 29.1769 176.979 26.6655 177.204 24.122C177.511 20.6505 178.07 17.2111 178.629 13.7716C178.922 11.9614 179.22 10.1512 179.479 8.33637C179.654 7.10587 179.377 4.89922 180.945 4.58301H181.045L181.049 4.57155ZM181.045 0.000148954C180.72 -0.00239056 180.396 0.0275477 180.077 0.0895181C177.916 0.513433 176.25 2.00744 175.509 4.1843C175.202 5.16624 175.035 6.18679 175.011 7.21586C175.011 7.38313 174.988 7.61457 174.979 7.69477C174.752 9.34231 174.468 11.0403 174.202 12.6809L174.143 13.0361V13.1002C173.584 16.5374 173.007 20.1029 172.686 23.721C172.661 24.012 172.616 24.3374 172.57 24.6857C172.343 26.4524 171.977 29.1219 173.752 31.4546C174.909 32.9738 176.634 33.8904 178.881 34.1814L179.579 34.2708C181.438 34.4999 183.195 34.7291 184.977 35.0063L185.372 35.1049C186.304 35.3785 187.266 35.5325 188.236 35.5631C189.27 35.5765 190.289 35.3133 191.19 34.8001L191.379 34.6878C191.784 35.1408 192.233 35.5522 192.72 35.916C193.99 36.8525 195.525 37.3529 197.099 37.3436C199.258 37.3436 201.16 36.4614 202.576 35.6915C202.699 35.625 202.937 35.5081 203.167 35.3936C205.346 34.312 208.333 32.8317 209.183 29.8414C209.671 28.1183 209.371 26.2622 208.335 24.6124C207.76 23.6958 206.903 22.8549 205.719 21.6931C205.455 21.4365 205.103 21.0905 204.733 20.717C207.319 19.1909 210.117 17.0186 210.498 13.6135C210.985 9.2896 207.56 5.82267 206.433 4.69529C205.103 3.35022 203.594 2.66967 201.951 2.66967C200.256 2.66967 198.997 3.40751 198.088 3.9437L197.928 4.03765C197.649 4.20263 197.374 4.36761 197.106 4.53718C196.983 4.32514 196.849 4.12013 196.703 3.92307C195.447 2.21367 193.547 1.52395 187.867 0.715074C185.513 0.378234 182.134 0.00244262 181.049 0.00244262L181.045 0.000148954Z" />
  <path
    d="M13.619 32.3781C11.888 32.4075 10.1633 32.1585 8.5101 31.6403C7.71685 31.3607 6.99114 30.9153 6.38054 30.3333C5.76995 29.7512 5.28826 29.0456 4.96703 28.2627C3.49436 24.9035 4.55342 23.563 5.31476 23.0634C5.75263 22.79 6.26139 22.6544 6.77607 22.6739C6.99401 22.6754 7.21173 22.6883 7.42832 22.7128C8.29874 22.7953 9.30552 22.8847 10.285 22.8847C10.6555 22.8847 10.9964 22.871 11.3304 22.848C11.6645 22.8251 11.9804 22.7816 12.2918 22.7312C11.7464 22.5341 11.1941 22.3302 10.6464 22.1056C8.19875 21.1043 5.74884 19.8142 4.41025 17.202C2.87621 14.2048 3.42845 10.1489 5.72155 7.55732C8.1692 4.79386 12.1736 3.26318 17.6212 3.00425C18.0757 2.98363 18.4643 2.97217 18.8416 2.97217C21.0529 2.97217 22.7323 3.34109 24.1232 4.13392C26.0595 5.2361 28.164 7.50004 27.7299 10.2498C27.5026 11.6842 26.5254 12.5068 25.0482 12.5068C24.5358 12.4946 24.0262 12.4277 23.5278 12.3075L23.0937 12.2112C22.1888 11.9743 21.2618 11.8338 20.3279 11.7919C19.5143 11.7919 18.9461 11.9752 18.587 12.3487C18.6897 12.6288 18.8836 12.8655 19.137 13.0201C19.8665 13.3111 20.6029 13.5265 21.3847 13.7579C23.0073 14.2345 24.6823 14.7272 26.1936 15.9073C28.189 17.4586 29.173 19.6652 28.9594 22.1171C28.8276 23.6271 28.2776 25.7559 27.1254 27.1995C25.8946 28.706 24.317 29.886 22.5301 30.6366C20.9392 31.418 18.9552 31.9404 16.6575 32.1925C15.6487 32.3091 14.6344 32.3711 13.619 32.3781Z"
    fill="none"
  />
  <path d="M18.8324 4.00331C20.48 4.00331 22.1709 4.21184 23.6049 5.03217C25.3458 6.02436 27.0434 7.93541 26.7025 10.0871C26.5321 11.1732 25.8435 11.4757 25.0322 11.4757C24.5924 11.4634 24.1551 11.4043 23.7277 11.2992C22.7891 11.0953 21.5141 10.7607 20.3187 10.7607C19.3528 10.7607 18.4415 10.9899 17.8188 11.6773C17.137 12.4266 17.9642 13.5632 18.6642 13.9435C18.6885 13.9571 18.7135 13.9694 18.7392 13.9802C21.0687 14.9151 23.5277 15.142 25.5571 16.7299C27.248 18.0475 28.1184 19.8646 27.9275 22.0346C27.798 23.5378 27.2639 25.3755 26.3162 26.5624C25.1861 27.9479 23.7351 29.0315 22.0913 29.7177C20.5899 30.4556 18.7377 30.9452 16.5347 31.1865C15.5626 31.295 14.5855 31.3516 13.6075 31.3561C11.9837 31.3862 10.3656 31.1541 8.81453 30.6687C8.15672 30.4334 7.55544 30.061 7.04991 29.5758C6.54438 29.0906 6.14594 28.5034 5.88054 27.8525C5.44191 26.8535 4.68058 24.7018 5.85099 23.9342C6.12527 23.7698 6.44133 23.6902 6.76005 23.705C6.94641 23.705 7.13504 23.7211 7.31685 23.7371C8.29636 23.8334 9.28269 23.9158 10.2713 23.9158C10.644 23.9158 11.019 23.9158 11.394 23.8746C11.8485 23.8402 15.1188 23.5309 14.2984 22.4997C14.1347 22.3301 13.928 22.2088 13.7007 22.1491C12.7917 21.8261 11.9008 21.5167 11.019 21.1547C8.70316 20.2083 6.49416 19.058 5.30556 16.7322C3.92379 14.0375 4.50105 10.4743 6.47143 8.25392C9.22816 5.14216 13.7075 4.23017 17.6551 4.04227C18.0415 4.02394 18.4324 4.01248 18.8278 4.01248L18.8324 4.00331ZM18.8278 1.9502C18.4347 1.9502 18.0188 1.9502 17.5574 1.98228C11.8258 2.25496 7.58275 3.9025 4.94648 6.87906C3.68972 8.32867 2.87734 10.1149 2.60793 12.021C2.31332 13.9547 2.62059 15.9329 3.48744 17.6831C4.42605 19.5163 5.81918 20.7514 7.38049 21.6817C7.19414 21.6657 6.98732 21.6519 6.76232 21.6519C6.04996 21.6309 5.34749 21.8239 4.74421 22.2064C3.70788 22.8939 2.24429 24.6308 4.01696 28.6889C4.39573 29.6035 4.9618 30.4272 5.6781 31.1059C6.3944 31.7847 7.24481 32.3034 8.17364 32.6279C9.93357 33.1833 11.7705 33.4502 13.6144 33.4184C14.6661 33.4145 15.7168 33.3533 16.762 33.2351C19.1687 32.9739 21.2527 32.4193 22.9527 31.5921C24.8841 30.771 26.5884 29.4884 27.9184 27.8548C29.0161 26.48 29.7843 24.3695 29.9638 22.2156C30.2093 19.4017 29.0866 16.8743 26.8048 15.0984C25.828 14.3582 24.7401 13.7803 23.5822 13.3867C24.0572 13.4857 24.5404 13.5394 25.0253 13.5471C26.998 13.5471 28.4116 12.3487 28.7161 10.4216C29.2343 7.14944 26.8253 4.51201 24.6049 3.24714C23.0527 2.36265 21.2141 1.9502 18.8187 1.9502H18.8278Z" />
  <path
    d="M220.164 32.1379C219.286 32.1354 218.409 32.0818 217.537 31.9775C214.289 31.5971 211.655 30.7997 209.708 29.6081C208.996 29.1579 208.386 28.5613 207.918 27.8573C207.451 27.1533 207.136 26.3577 206.994 25.5225C206.296 21.9181 207.624 20.848 208.476 20.5295C208.734 20.4359 209.006 20.3886 209.28 20.3897C209.737 20.4058 210.187 20.4971 210.614 20.6601C211.844 21.1001 213.107 21.4358 214.392 21.6637C214.414 21.6637 214.846 21.7325 215.353 21.7646C214.864 21.4506 214.369 21.1275 213.887 20.7884C211.719 19.2646 209.612 17.4612 208.887 14.6015C208.051 11.3363 209.48 7.49812 212.296 5.49083C214.364 4.00599 217.032 3.25439 220.225 3.25439C221.794 3.26936 223.358 3.42271 224.9 3.71268C226.932 4.07702 229.246 4.66591 230.993 6.26762C232.639 7.77538 234.193 10.4518 233.166 13.0365C232.73 14.1295 231.9 14.7299 230.825 14.7299C230.05 14.7299 229.273 14.4137 228.614 14.1043L228.214 13.9118C227.218 13.4352 225.857 12.7822 224.775 12.7822C224.431 12.7694 224.091 12.8604 223.798 13.0434C223.836 13.3394 223.973 13.6135 224.187 13.8202C224.83 14.2647 225.503 14.6405 226.216 15.0415C227.693 15.8687 229.218 16.7234 230.434 18.2105C232.039 20.1697 232.511 22.5414 231.766 24.8832C231.311 26.3291 230.3 28.2814 228.859 29.4317C227.331 30.6269 225.537 31.4277 223.632 31.7644C222.494 32.0224 221.331 32.1477 220.164 32.1379Z"
    fill="none"
  />
  <path d="M220.21 4.30102C221.718 4.31407 223.222 4.46051 224.705 4.73868C226.673 5.09156 228.771 5.65525 230.289 7.04157C231.771 8.39809 233.016 10.6414 232.2 12.6624C231.889 13.4438 231.384 13.7096 230.809 13.7096C230.234 13.7096 229.614 13.4553 229.032 13.1803C227.896 12.6441 226.234 11.7619 224.76 11.7619C224.2 11.7482 223.65 11.9082 223.185 12.2202C222.346 12.7976 222.912 14.0923 223.51 14.6216L223.575 14.672C225.644 16.1042 227.991 16.8741 229.628 18.8791C230.991 20.5404 231.446 22.5064 230.764 24.5825C230.309 26.0169 229.382 27.6896 228.198 28.636C226.792 29.7348 225.138 30.4675 223.385 30.7693C222.324 31.0086 221.24 31.1247 220.153 31.1153C219.317 31.1117 218.483 31.0596 217.653 30.9595C215.169 30.6685 212.399 30.0567 210.235 28.7322C209.646 28.3555 209.142 27.8581 208.756 27.2723C208.37 26.6864 208.11 26.0253 207.994 25.3318C207.787 24.2594 207.515 21.9909 208.828 21.5051C208.974 21.4512 209.128 21.4248 209.283 21.4272C209.631 21.45 209.974 21.5273 210.299 21.6563C211.581 22.1158 212.901 22.4653 214.242 22.7012C214.794 22.7815 215.352 22.8251 215.91 22.8318C216.819 22.8318 217.698 22.6714 217.378 22.0046C217.257 21.8018 217.083 21.6373 216.873 21.5303C216.069 21.0147 215.258 20.5106 214.476 19.9606C212.43 18.5193 210.526 16.9039 209.876 14.3718C209.124 11.4342 210.467 8.08875 212.878 6.35184C215.005 4.82804 217.607 4.30789 220.214 4.30789L220.21 4.30102ZM220.214 2.24561C216.805 2.24561 213.937 3.06136 211.692 4.67224C210.148 5.80511 208.964 7.36527 208.283 9.16343C207.571 10.983 207.436 12.9804 207.896 14.8806C208.408 16.8787 209.487 18.3933 210.815 19.6513C210.322 19.4766 209.805 19.3815 209.283 19.3695C208.889 19.368 208.498 19.4371 208.128 19.5734C206.969 20.0042 205.151 21.3768 205.994 25.7328C206.394 27.795 207.524 29.4861 209.176 30.5012C211.251 31.7707 214.023 32.6162 217.419 33.0218C218.33 33.1314 219.247 33.1881 220.164 33.1914C221.393 33.1995 222.619 33.0689 223.819 32.8018C225.882 32.4329 227.825 31.5631 229.48 30.2675C230.843 29.1676 232.066 27.2886 232.723 25.2264C233.58 22.5362 233.041 19.8209 231.205 17.5798C230.416 16.6362 229.482 15.8262 228.439 15.1807C229.179 15.5444 229.986 15.7481 230.809 15.7788C232.307 15.7788 233.505 14.9264 234.098 13.4392C235.323 10.3641 233.552 7.25238 231.666 5.52235C230.641 4.58286 228.964 3.41423 225.064 2.71535C223.463 2.41587 221.838 2.25869 220.21 2.24561H220.214Z" />
  <path
    d="M42.9339 32.7081C41.0613 32.7236 39.1953 32.4839 37.3864 31.9954C34.8864 31.308 32.8206 30.1142 31.2502 28.4758C29.7775 26.9314 29.4321 25.3869 29.1048 23.3774C28.6889 20.8155 28.6617 18.9526 28.6276 16.5947V15.7469C28.6071 14.4041 28.5003 13.1874 28.4003 12.0119C28.2889 10.747 28.173 9.43858 28.173 7.95832C28.152 7.58307 28.2281 7.20877 28.3938 6.87212C28.5596 6.53548 28.8093 6.24806 29.1185 6.0381C29.7775 5.63251 32.7547 5.08487 38.9431 4.87406H39.1113C40.1431 4.87406 40.9612 5.20173 41.4794 5.825C41.968 6.4116 42.0566 7.14487 42.1112 7.58253C42.468 10.5339 42.5816 13.5402 42.693 16.4343V16.5649C42.7134 17.1057 42.7271 17.5319 42.7384 17.926C42.7566 18.6295 42.7748 19.239 42.8339 20.2175C42.8521 20.4787 42.8566 20.756 42.8612 21.0493C42.8794 22.1354 42.9044 23.485 43.568 23.8311C43.7078 23.9085 43.8632 23.9531 44.0225 23.9617C44.0651 23.9631 44.1076 23.9561 44.1475 23.941C44.4998 23.7898 44.9134 22.5387 44.727 20.2289C44.6157 18.8403 44.4997 17.7656 44.3861 16.6268C44.302 15.8156 44.2134 14.9747 44.1225 13.9756C44.0657 13.3684 44.002 12.7634 43.9384 12.1585C43.8452 11.2901 43.7498 10.3895 43.6816 9.49587C43.6611 9.2209 43.6043 8.90468 43.5475 8.5793C43.3634 7.54128 43.1589 6.36348 43.8293 5.424C44.227 4.86718 44.8588 4.52117 45.702 4.39515C46.1565 4.32869 46.611 4.25537 47.0656 4.18434C49.1314 3.85895 51.2654 3.5244 53.4085 3.5244C54.53 3.51582 55.6494 3.62255 56.7493 3.84292C57.1486 3.90461 57.5231 4.07673 57.8311 4.34015C58.0432 4.54932 58.2082 4.80206 58.3148 5.08119C58.4215 5.36032 58.4673 5.65932 58.4493 5.9579C58.4493 8.34786 58.6061 10.8112 58.7606 13.1919C58.8356 14.3377 58.9129 15.5178 58.972 16.6772C59.0152 17.5411 59.1038 18.2537 59.1992 18.9411C59.4151 20.6689 59.6015 22.1629 58.7879 24.5276C57.7675 27.4928 55.7971 29.5459 52.7654 30.8062C49.6362 32.0585 46.3006 32.7037 42.9339 32.7081Z"
    fill="none"
  />
  <path d="M53.4039 4.54366C54.4566 4.53635 55.5073 4.63614 56.5402 4.84154C56.7612 4.86975 56.9702 4.95852 57.1447 5.09818C57.2474 5.21309 57.3256 5.34804 57.3745 5.49467C57.4233 5.64129 57.4418 5.79646 57.4288 5.95059C57.4288 9.52751 57.7719 13.148 57.9515 16.7203C58.1083 19.8389 58.8605 21.1726 57.8151 24.1789C56.8629 26.9424 55.0743 28.7182 52.3608 29.8433C49.3619 31.0506 46.1629 31.6727 42.9338 31.6765C41.1535 31.6911 39.3794 31.4646 37.659 31.0028C35.4841 30.3956 33.5137 29.353 31.9978 27.7604C30.6956 26.397 30.407 25.0107 30.1229 23.2096C29.6683 20.4347 29.6934 18.5351 29.6479 15.7304C29.6024 12.9257 29.1934 10.7626 29.1797 7.93956C29.1797 7.54773 29.3002 7.11463 29.6343 6.9107C29.832 6.78925 31.8796 6.1362 38.9521 5.8956H39.0862C39.6725 5.8956 40.2998 6.0308 40.6771 6.47763C40.952 6.80989 41.0225 7.26588 41.0748 7.69667C41.4338 10.6503 41.5429 13.6246 41.6566 16.5943C41.7134 18.125 41.7043 18.7414 41.7975 20.2606C41.8838 21.6606 41.627 23.9681 43.0838 24.7266C43.3674 24.8797 43.6826 24.9636 44.0042 24.9718C44.1836 24.9732 44.3614 24.9382 44.5269 24.8686C45.9064 24.282 45.8269 21.3513 45.7292 20.1231C45.536 17.7285 45.3428 16.2529 45.1224 13.8583C44.986 12.3712 44.7974 10.8795 44.6837 9.39461C44.561 7.81353 43.5974 5.72833 45.8337 5.38691C48.3154 5.01798 50.8676 4.52762 53.3994 4.52762L53.4039 4.54366ZM53.3994 2.46533C51.1767 2.46533 49.0018 2.80675 46.8996 3.13672C46.445 3.20775 45.9905 3.28108 45.536 3.34753C44.3997 3.5148 43.5497 4.00288 42.9838 4.79342C42.8071 5.03992 42.6648 5.30979 42.5611 5.59542C42.4687 5.43402 42.363 5.28073 42.2452 5.13713C41.7429 4.53678 40.7907 3.81956 39.093 3.81956H38.8908C33.3864 4.00746 29.6229 4.48636 28.5684 5.13484C27.6593 5.69395 27.1207 6.73884 27.1321 7.94413C27.1457 9.46564 27.2616 10.7924 27.373 12.0687C27.4798 13.2809 27.5798 14.4243 27.6002 15.735C27.6002 16.0237 27.6002 16.3033 27.6139 16.576C27.6457 18.9797 27.673 20.877 28.1025 23.5121C28.3889 25.2719 28.7116 27.2655 30.5206 29.1605C32.2114 30.9341 34.4295 32.2104 37.1113 32.9597C39.0085 33.4828 40.9669 33.7456 42.9338 33.7411C46.4308 33.7402 49.8953 33.0642 53.1403 31.7498C56.4583 30.3749 58.6174 28.1156 59.731 24.8572C60.6241 22.2633 60.4127 20.5814 60.1855 18.8032C60.1037 18.1318 60.015 17.4398 59.9741 16.6149C59.915 15.4463 59.8378 14.2616 59.7628 13.1136C59.6082 10.7488 59.4491 8.3016 59.4537 5.95059C59.4537 4.70405 58.9355 3.96851 58.5014 3.56751C58.0584 3.17849 57.5173 2.92073 56.9379 2.82279C55.7698 2.58874 54.5811 2.47512 53.3903 2.48367L53.3994 2.46533Z" />
  <path
    d="M136.776 32.6687C133.547 32.6687 130.499 32.0959 127.963 31.0143C125.572 29.9923 123.679 28.5487 122.342 26.7202C121.081 24.997 120.938 23.4205 120.872 21.3834C120.788 18.7895 121.004 16.9381 121.274 14.5939L121.372 13.7553C121.522 12.4194 121.574 11.2003 121.624 10.0202C121.679 8.75077 121.733 7.44008 121.911 5.97127C121.938 5.59618 122.062 5.23474 122.27 4.92255C122.478 4.61036 122.763 4.35817 123.097 4.19083C123.636 3.96169 125.192 3.91357 126.072 3.91357C127.89 3.91357 130.206 4.05335 132.987 4.32374C134.094 4.43143 134.922 4.87138 135.381 5.59548C135.79 6.24166 135.783 6.97033 135.778 7.42862C135.753 10.4075 135.481 13.3863 135.215 16.2781V16.411C135.165 16.9518 135.121 17.3757 135.083 17.7675C135.012 18.4687 134.951 19.076 134.885 20.059C134.867 20.3225 134.835 20.5975 134.803 20.8885C134.683 21.9654 134.531 23.3082 135.146 23.739C135.288 23.8479 135.458 23.9146 135.635 23.9315C135.658 23.934 135.681 23.934 135.703 23.9315C136.074 23.8284 136.644 22.6414 136.758 20.3271C136.826 18.9362 136.853 17.8569 136.883 16.7135C136.903 15.8955 136.926 15.0522 136.962 14.0486C136.985 13.439 137.001 12.8318 137.015 12.2154C137.035 11.3401 137.058 10.435 137.103 9.53903C137.119 9.26406 137.103 8.94326 137.09 8.60642C137.042 7.55236 136.99 6.35853 137.771 5.51528C138.24 5.01575 138.908 4.75453 139.76 4.74078L141.149 4.71099C141.967 4.69036 142.814 4.66974 143.648 4.66974C145.794 4.66974 148.319 4.78431 150.787 5.64131C151.175 5.75391 151.525 5.97376 151.796 6.27604C151.98 6.51089 152.111 6.78293 152.181 7.07359C152.25 7.36425 152.257 7.66669 152.2 7.96023C151.887 10.3296 151.73 12.7906 151.578 15.1736C151.505 16.3194 151.428 17.4995 151.337 18.6589C151.269 19.5205 151.264 20.2377 151.262 20.932C151.262 22.6735 151.246 24.179 150.126 26.4154C148.73 29.2224 146.512 30.9983 143.344 31.8507C141.198 32.4057 138.991 32.6806 136.776 32.6687Z"
    fill="none"
  />
  <path d="M126.072 4.94458C127.522 4.94458 129.708 5.03852 132.89 5.35015C133.51 5.41202 134.183 5.62055 134.519 6.14987C134.747 6.5165 134.76 6.97707 134.747 7.41244C134.722 10.3913 134.447 13.3518 134.176 16.3101C134.037 17.8362 133.949 18.4457 133.844 19.9764C133.749 21.3764 133.194 23.6426 134.542 24.5753C134.854 24.8054 135.228 24.9363 135.615 24.9511C135.73 24.9506 135.844 24.9352 135.956 24.9052C137.399 24.5019 137.699 21.5872 137.758 20.3567C137.876 17.9553 137.874 16.4613 137.965 14.0668C138.021 12.5728 138.026 11.0879 138.106 9.58243C138.187 7.99905 137.503 5.79699 139.762 5.76033C141.04 5.73971 142.339 5.68929 143.639 5.68929C145.951 5.68929 148.26 5.8474 150.446 6.60587C150.659 6.66267 150.853 6.7758 151.007 6.93354C151.093 7.06141 151.153 7.20548 151.182 7.35708C151.211 7.50869 151.21 7.66469 151.178 7.81573C150.71 11.3629 150.591 14.9971 150.307 18.5671C150.062 21.6789 150.626 23.0996 149.21 25.9455C147.91 28.56 145.908 30.0861 143.074 30.8469C141.011 31.3827 138.89 31.6507 136.76 31.6443C133.885 31.6443 130.917 31.1677 128.351 30.0701C126.272 29.1856 124.454 27.8909 123.154 26.1151C122.04 24.5913 121.94 23.1821 121.883 21.3558C121.792 18.5465 122.058 16.6652 122.377 13.8789C122.695 11.0925 122.577 8.895 122.915 6.10175C122.961 5.71221 123.142 5.29975 123.499 5.14164C123.613 5.08894 124.301 4.95145 126.06 4.95145L126.072 4.94458ZM126.06 2.88916C123.488 2.88916 122.895 3.15497 122.67 3.2558C122.174 3.49466 121.748 3.85972 121.435 4.315C121.122 4.77027 120.932 5.30002 120.883 5.85198C120.702 7.36203 120.656 8.69335 120.59 9.97655C120.54 11.191 120.49 12.339 120.342 13.6428C120.311 13.9293 120.279 14.2088 120.247 14.4792C119.972 16.8646 119.754 18.7504 119.838 21.42C119.895 23.2027 119.961 25.2214 121.508 27.3364C122.956 29.3162 124.99 30.8744 127.554 31.9674C130.215 33.1131 133.399 33.7043 136.765 33.7043C139.072 33.7119 141.37 33.42 143.603 32.8359C147.073 31.9032 149.512 29.9509 151.037 26.8781C152.257 24.424 152.264 22.7307 152.273 20.9365C152.273 20.2605 152.273 19.5616 152.346 18.739C152.437 17.5727 152.514 16.388 152.587 15.24C152.739 12.8752 152.894 10.428 153.203 8.09759C153.364 6.86251 152.946 6.06279 152.566 5.61138C152.179 5.16581 151.675 4.83875 151.112 4.66731C148.498 3.75074 145.867 3.63846 143.637 3.63846C142.783 3.63846 141.93 3.65908 141.108 3.67971C140.653 3.67971 140.183 3.70262 139.726 3.7095C138.59 3.72783 137.681 4.09674 136.999 4.80938C136.793 5.03047 136.618 5.27868 136.478 5.54723C136.405 5.37739 136.319 5.21345 136.221 5.05686C135.597 4.07154 134.476 3.45286 133.067 3.31308C130.251 3.03811 127.892 2.89833 126.051 2.89833L126.06 2.88916Z" />
  <path
    d="M69.0488 32.387C68.4465 32.387 67.8215 32.3526 67.2147 32.3182C66.7898 32.293 66.3875 32.2701 65.9989 32.2609C65.1853 32.238 62.4195 32.0639 60.9991 30.7807C59.9764 29.8641 60.1354 28.4388 60.24 27.5017C60.2582 27.3367 60.2764 27.1809 60.2877 27.0434C60.3468 26.1818 60.4074 25.3202 60.4695 24.4586L60.5922 22.7286C60.7445 21.0284 60.8672 19.3144 60.9831 17.6531C61.09 16.1384 61.2104 14.5734 61.3331 13.0313C61.4536 11.645 61.5808 10.2449 61.7149 8.87004C61.7354 8.66152 61.749 8.45299 61.7649 8.24676C61.8808 6.71151 62.0536 4.39258 64.8307 4.39258C64.9785 4.39258 65.133 4.39258 65.2853 4.41321C66.9238 4.55528 68.5988 4.67672 70.2169 4.79587C73.2009 5.02501 76.2872 5.23812 79.3212 5.60017C82.5347 5.98283 87.0822 6.87879 89.4549 10.2449C89.4913 10.2953 89.5276 10.348 89.5617 10.4007C91.2776 12.9511 91.6298 16.6013 90.4867 19.9285C89.4049 23.0792 87.2141 25.389 84.4732 26.2689C83.0404 26.7088 81.5483 26.9206 80.0507 26.8967C78.5252 26.8688 77.0025 26.7556 75.4895 26.5576L74.6963 26.4705C74.6466 27.2715 74.5403 28.0679 74.3781 28.8536C74.0168 30.5126 73.1259 31.2527 71.8078 31.9081C71.1351 32.238 70.2828 32.387 69.0488 32.387ZM76.5894 11.8191C76.344 11.8191 76.1508 12.062 76.0213 12.5409C75.3531 14.9721 75.2917 16.0766 75.6781 18.7553C75.7713 19.3991 75.9281 19.6512 75.9917 19.7314C76.3379 19.5233 76.6002 19.1987 76.7326 18.8148C77.278 17.4606 77.3962 15.7924 77.4394 14.3374C77.4642 13.6282 77.4132 12.9183 77.2871 12.2201C77.2091 12.1039 77.1055 12.0072 76.9846 11.9377C76.8636 11.8682 76.7284 11.8276 76.5894 11.8191Z"
    fill="none"
  />
  <path d="M64.8329 5.41483C64.9511 5.41483 65.0761 5.41483 65.2079 5.43087C69.8669 5.83416 74.5553 6.06101 79.2097 6.61553C82.5505 7.01195 86.5822 7.92624 88.6298 10.8318C88.6617 10.8799 88.6957 10.9257 88.7276 10.9715C91.8252 15.5819 89.6184 23.5286 84.1823 25.2769C82.8492 25.6839 81.4615 25.8795 80.0688 25.8567C77.9575 25.8567 75.8257 25.5175 73.7372 25.3251C73.7272 26.4333 73.6131 27.5382 73.3963 28.6247C73.1349 29.8185 72.5827 30.3708 71.3713 30.9757C70.7691 31.2736 69.9509 31.3584 69.0578 31.3584C68.076 31.3584 67.0124 31.2576 66.0374 31.2301C64.8193 31.1957 62.683 30.9093 61.6921 30.0133C60.9285 29.3259 61.2558 28.0083 61.3172 27.1055C61.4171 25.6688 61.524 24.2297 61.624 22.793C61.9149 19.5713 62.0785 16.3358 62.3648 13.1117C62.483 11.7277 62.6095 10.3437 62.7444 8.95966C62.9171 7.16318 62.7626 5.41483 64.842 5.41483H64.8329ZM75.9598 20.7674C76.6121 20.7674 77.3234 20.08 77.6893 19.1909C78.287 17.7038 78.4234 15.9462 78.4711 14.356C78.4985 13.5723 78.4421 12.7879 78.3029 12.0164C78.1893 11.4069 77.3939 10.7813 76.5984 10.7813C75.9712 10.7813 75.3417 11.1709 75.044 12.2593C74.3281 14.8624 74.2735 16.1135 74.6758 18.9045C74.8712 20.2541 75.3917 20.7743 75.9598 20.7743V20.7674ZM64.842 3.35941C62.683 3.35941 61.7308 4.61053 61.3535 5.35525C60.899 6.25578 60.8263 7.22735 60.7558 8.16913C60.7422 8.36619 60.7263 8.56554 60.7081 8.76719C60.574 10.142 60.4467 11.5558 60.3263 12.9399C60.1922 14.4889 60.0808 16.0585 59.974 17.5777C59.8581 19.2321 59.7468 20.9438 59.5877 22.6189V22.6578C59.5483 23.2307 59.5081 23.8028 59.4672 24.3741C59.4036 25.2418 59.3422 26.1087 59.2831 26.9749C59.2831 27.0894 59.2581 27.2384 59.2399 27.3988C59.1263 28.4047 58.9172 30.2791 60.3308 31.5577C61.9626 33.0357 64.8284 33.2694 65.9852 33.3015C66.3579 33.313 66.7533 33.3359 67.1715 33.3588C67.7897 33.3955 68.4305 33.4321 69.0623 33.4321C70.46 33.4321 71.4532 33.2465 72.2804 32.8364C73.619 32.1695 74.9235 31.253 75.3962 29.0784C75.4439 28.8676 75.5462 28.352 75.6371 27.6119C77.1089 27.8002 78.5899 27.9066 80.0733 27.9304C81.6772 27.9509 83.2743 27.719 84.8072 27.243C87.8571 26.2645 90.2866 23.7188 91.4752 20.2587C92.7229 16.6291 92.3229 12.6283 90.4343 9.81667L90.3116 9.63793C87.7049 5.93956 82.871 4.97258 79.4643 4.56699C76.4053 4.20266 73.3076 3.97581 70.3123 3.75813C68.6964 3.63897 67.0283 3.52897 65.3966 3.37545C65.2079 3.35941 65.0238 3.35254 64.8466 3.35254L64.842 3.35941Z" />
  <path
    d="M93.7684 31.7914C92.9252 31.7914 92.2661 31.2369 91.9934 30.3065C91.8018 29.738 91.7005 29.1425 91.6934 28.5421C91.6025 26.4065 91.4957 24.4794 91.3753 22.8136C91.2003 20.3915 91.0503 17.793 90.9366 15.096C90.9253 14.8142 90.8616 14.2665 90.7912 13.6318C90.2071 8.48983 90.2048 5.74929 91.8025 5.04582C92.5343 4.72273 93.4593 4.58753 94.8024 4.58753C95.2797 4.58753 95.7524 4.60356 96.2115 4.6196C96.6228 4.63564 97.0114 4.64939 97.3637 4.64939C97.5114 4.64939 97.6546 4.64939 97.7909 4.64939C99.1886 4.58294 100.616 4.50045 101.995 4.42025C103.554 4.33088 105.166 4.23694 106.754 4.1682C107.354 4.1407 107.891 4.12695 108.409 4.12695C111.518 4.12695 115.959 4.56232 118.599 8.32943C119.992 10.3161 120.763 12.8115 120.888 15.7514C121.138 21.6037 119.558 25.6641 116.061 28.1618C112.379 30.79 107.62 31.2804 104.359 31.4225L99.4863 31.5966L93.8456 31.8028L93.7684 31.7914ZM104.984 9.93115C104.961 10.0005 104.945 10.0719 104.936 10.1442C104.709 11.7299 104.693 13.3248 104.684 15.0112C104.684 15.7193 104.684 16.4503 104.652 17.1744C104.652 17.337 104.638 17.5295 104.629 17.7426C104.473 21.4089 104.763 23.517 105.495 24.0486C106.138 23.116 106.532 18.7784 106.404 15.5704C106.404 15.2702 106.386 14.9562 106.382 14.6377C106.352 13.1506 106.325 11.6108 105.657 10.5338C105.498 10.2692 105.263 10.0592 104.984 9.93115Z"
    fill="none"
  />
  <path d="M108.407 5.14473C111.956 5.14473 115.577 5.79091 117.765 8.91184C119.05 10.745 119.751 13.0364 119.868 15.7861C120.056 20.2178 119.27 24.5967 115.47 27.3097C112.288 29.6012 108.132 30.2176 104.316 30.3825L99.4501 30.5567L93.8093 30.7629H93.7684C93.373 30.7629 93.1048 30.5017 92.9639 29.9792C92.8014 29.5036 92.7178 29.0043 92.7162 28.5013C92.6238 26.3427 92.517 24.4233 92.3957 22.7429C92.2185 20.3186 92.0723 17.756 91.9571 15.0552C91.8935 13.5245 90.7003 6.65936 92.2117 5.99484C92.9071 5.69008 93.8412 5.61447 94.8025 5.61676C95.6888 5.61676 96.5956 5.67864 97.3638 5.67864C97.5297 5.67864 97.6887 5.67864 97.8387 5.67864C100.82 5.53886 103.811 5.33033 106.8 5.19743C107.329 5.17451 107.868 5.15848 108.407 5.15848V5.14473ZM105.563 25.1627C107.554 25.1627 107.47 16.6477 107.427 15.5524C107.357 13.7743 107.502 11.5905 106.518 10.0117C106.118 9.36554 105.45 8.88892 104.886 8.89121C104.432 8.89121 104.036 9.20743 103.918 10.0071C103.568 12.3696 103.691 14.7756 103.623 17.1541C103.566 18.93 103.132 24.1544 105.213 25.0802C105.324 25.1331 105.445 25.1612 105.568 25.1627H105.563ZM108.411 3.09619C107.884 3.09619 107.329 3.10994 106.713 3.13744C105.123 3.20847 103.502 3.30012 101.941 3.39178C100.566 3.47198 99.141 3.55447 97.7501 3.62092C97.6387 3.62092 97.5228 3.62092 97.3706 3.62092C97.0365 3.62092 96.657 3.60717 96.2547 3.59113C95.7865 3.57509 95.3047 3.55906 94.8093 3.55677C93.8071 3.55677 92.5116 3.62092 91.4003 4.109C89.0027 5.16535 89.2163 8.77435 89.7822 13.7605C89.8481 14.3494 89.9117 14.9062 89.9208 15.1491C90.0367 17.8576 90.1845 20.4652 90.364 22.8987C90.4822 24.5508 90.5913 26.4688 90.6776 28.5929C90.6904 29.2899 90.8092 29.9808 91.0299 30.6415C91.514 32.2455 92.7571 32.8298 93.7752 32.8298H93.8957L99.5296 32.6213L104.395 32.4494H104.416C107.804 32.3027 112.761 31.7872 116.663 29.0123C120.468 26.2969 122.188 21.9478 121.922 15.722C121.788 12.5827 120.956 9.90174 119.447 7.75008C116.531 3.59343 111.756 3.11223 108.418 3.11223L108.411 3.09619Z" />
  <path
    d="M165.096 32.2038C164.559 32.2038 164.014 32.1786 163.471 32.1304C161.357 31.9448 159.657 31.5393 158.269 30.8862C155.641 29.6511 153.701 27.4262 152.66 24.4473C151.23 20.3663 151.605 15.0662 153.612 10.9439C155.721 6.61768 159.83 3.73276 164.337 3.41883L164.807 3.37988H165.33C168.427 3.37988 171.466 4.49352 173.779 5.4628C174.319 5.65372 174.801 5.9793 175.182 6.40915C176.318 7.84358 175.825 10.5337 174.954 11.8444C174.765 12.1707 174.494 12.4414 174.169 12.6295C173.843 12.8176 173.475 12.9167 173.1 12.9168C172.698 12.9002 172.299 12.8293 171.916 12.706C171.764 12.6625 171.602 12.6189 171.434 12.58C170.924 12.4605 170.403 12.3968 169.88 12.3898C168.555 12.3898 166.759 12.8297 166.471 16.6381C166.35 18.2238 166.102 21.5211 167.543 22.7425C168.164 23.2672 168.495 23.2672 168.605 23.2672C168.986 23.2672 169.45 22.9854 169.986 22.66C170.395 22.4049 170.82 22.1754 171.257 21.9725C171.569 21.8265 171.908 21.7484 172.252 21.7434C174.718 21.7434 174.9 25.5082 174.979 26.9266C175.154 30.5792 169.616 31.9357 166.318 32.1648C165.918 32.1877 165.505 32.2038 165.096 32.2038Z"
    fill="none"
  />
  <path d="M165.323 4.41175C168.091 4.41175 170.85 5.35123 173.379 6.41446C173.759 6.5418 174.102 6.76225 174.377 7.05605C175.184 8.07116 174.756 10.2893 174.107 11.2746C173.8 11.7329 173.472 11.8864 173.104 11.8864C172.686 11.8864 172.216 11.6985 171.659 11.5748C171.077 11.438 170.482 11.3658 169.884 11.3594C167.125 11.3594 165.709 13.2086 165.457 16.5609C165.3 18.6507 165.109 22.0237 166.893 23.5337C167.552 24.0905 168.104 24.2991 168.611 24.2991C169.643 24.2991 170.491 23.4421 171.679 22.9082C171.861 22.8222 172.058 22.7754 172.259 22.7707C173.761 22.7707 173.904 25.9947 173.954 26.9938C174.097 29.9726 168.436 30.9809 166.243 31.1321C165.859 31.1596 165.473 31.1711 165.089 31.1711C164.575 31.1711 164.061 31.1481 163.552 31.1046C161.914 30.9602 160.193 30.6463 158.693 29.9589C151.978 26.8036 151.648 17.2919 154.523 11.3983C156.396 7.551 160.112 4.75318 164.4 4.44613L164.855 4.40945H165.323V4.41175ZM165.323 2.34717H164.757H164.673L164.245 2.38384C159.38 2.72755 154.953 5.82098 152.687 10.4817C150.566 14.8355 150.173 20.4518 151.687 24.7803C152.823 28.0272 154.948 30.4584 157.823 31.8127C159.321 32.5161 161.134 32.9584 163.368 33.1486C163.941 33.199 164.505 33.2242 165.082 33.2242C165.516 33.2242 165.95 33.2104 166.375 33.1806C168.192 33.0461 169.982 32.6605 171.695 32.0349C175.577 30.5455 176.052 28.1624 175.991 26.8746V26.8678C175.962 25.8949 175.839 24.9272 175.625 23.9783C175.472 23.295 175.192 22.6472 174.8 22.0695C174.518 21.649 174.139 21.304 173.696 21.0645C173.252 20.8249 172.757 20.698 172.254 20.6946C171.767 20.6986 171.286 20.8064 170.843 21.0109C170.367 21.2326 169.906 21.4843 169.461 21.7647C169.194 21.9431 168.911 22.0965 168.616 22.223C168.465 22.1513 168.325 22.057 168.202 21.9435C167.164 21.0636 167.411 17.7845 167.491 16.7076C167.739 13.4125 169.082 13.4125 169.879 13.4125C170.328 13.4189 170.774 13.4742 171.211 13.5775C171.35 13.6095 171.493 13.6485 171.645 13.692C172.116 13.842 172.606 13.9253 173.1 13.9395C173.872 13.9395 174.97 13.6737 175.806 12.4065C176.841 10.8346 177.475 7.64954 175.968 5.7614C175.48 5.19133 174.853 4.75866 174.15 4.50569C171.779 3.49517 168.609 2.34946 165.323 2.34946V2.34717Z" />
  <path
    d="M197.106 32.6283C196.282 32.6408 195.477 32.3817 194.813 31.8905C193.526 30.9372 192.651 29.2462 191.881 27.7659C191.615 27.2503 191.363 26.7645 191.11 26.3338C191.042 26.2192 190.97 26.084 190.883 25.9396L190.842 25.864C190.842 26.123 190.842 26.4071 190.842 26.6614C190.87 27.9469 190.91 29.7068 189.424 30.5683C189.055 30.7721 188.638 30.8718 188.217 30.857C187.54 30.823 186.87 30.7084 186.22 30.5156C185.947 30.4446 185.688 30.3781 185.522 30.3529C183.688 30.0734 181.82 29.8328 180.011 29.6013L179.311 29.5097C178.011 29.3424 177.1 28.8956 176.529 28.1348C175.645 26.9731 175.847 25.463 176.043 24.0103C176.093 23.639 176.143 23.2564 176.177 22.8852C176.484 19.3976 177.052 15.9032 177.6 12.5256L177.668 12.1063C177.938 10.4473 178.215 8.731 178.456 7.04451C178.486 6.8337 178.502 6.56102 178.52 6.27001C178.593 4.98222 178.715 2.83287 180.74 2.425C180.838 2.40811 180.937 2.40043 181.036 2.40207C181.756 2.40207 184.736 2.70454 187.358 3.0895C193.135 3.91671 193.572 4.51249 193.86 4.90432C194.96 6.39604 194.358 8.039 193.917 9.2397L193.876 9.35428C193.767 9.66704 193.676 9.98611 193.604 10.3098C194.119 9.92942 194.631 9.53759 195.131 9.16408C196.579 8.01026 198.097 6.94805 199.676 5.98358L199.844 5.88505C200.569 5.45884 201.208 5.09221 201.942 5.09221C202.851 5.09221 203.515 5.65362 203.933 6.07524C206.187 8.35292 207.187 10.319 206.989 12.0857C206.714 14.5283 203.462 16.2698 201.081 17.5393C200.537 17.8303 200.069 18.08 199.733 18.2886C199.648 18.3392 199.567 18.3951 199.49 18.4558C199.49 18.5154 199.51 18.9874 200.492 20.2042C201.368 21.2119 202.297 22.1711 203.276 23.0776C204.249 24.0309 205.019 24.7848 205.371 25.3484C205.862 26.1298 206.019 26.9524 205.81 27.6995C205.421 29.0743 203.685 30.0207 201.626 31.0426C201.342 31.1824 201.099 31.3039 200.919 31.4024C199.796 32.0073 198.469 32.6283 197.106 32.6283Z"
    fill="none"
  />
  <path d="M181.049 3.42598C182.245 3.42598 192.326 4.51441 193.054 5.50202C193.849 6.58357 193.353 7.82324 192.929 8.9827C192.758 9.44099 192.006 11.9776 192.817 11.9776C193.024 11.9535 193.22 11.8691 193.381 11.7347C195.653 10.1307 197.781 8.26547 200.199 6.85395C200.928 6.42775 201.442 6.10008 201.953 6.10008C202.346 6.10008 202.735 6.29256 203.219 6.78751C204.446 8.02717 206.196 10.0597 205.985 11.9524C205.714 14.3515 200.985 16.3061 199.217 17.3945C198.978 17.5177 198.774 17.6989 198.622 17.9216C197.549 19.8257 203.553 24.404 204.496 25.9072C204.651 26.1236 204.759 26.37 204.814 26.6308C204.868 26.8915 204.869 27.1609 204.814 27.4218C204.455 28.6867 201.519 29.9057 200.424 30.4992C199.451 31.0285 198.249 31.6037 197.101 31.6037C196.495 31.615 195.902 31.4258 195.413 31.0652C193.924 29.9607 192.992 27.5227 191.985 25.7949C191.654 25.2312 191.169 24.1084 190.638 24.1061C190.465 24.1061 190.285 24.2276 190.104 24.5323C189.342 25.8064 190.558 28.7211 188.924 29.6629C188.708 29.7728 188.468 29.8249 188.226 29.8141C187.397 29.8141 186.297 29.4154 185.683 29.3214C183.604 29.0052 181.531 28.744 179.449 28.4759C176.004 28.0314 176.979 25.52 177.204 22.9765C177.511 19.5049 178.07 16.0655 178.629 12.6261C178.922 10.8158 179.22 9.00561 179.479 7.1908C179.654 5.9603 179.377 3.75366 180.945 3.43744H181.045L181.049 3.42598ZM181.045 1.37515C180.88 1.37333 180.716 1.38791 180.554 1.41869C179.277 1.66846 178.322 2.53691 177.872 3.85907C177.645 4.62384 177.521 5.41633 177.506 6.21465C177.493 6.48275 177.477 6.73481 177.454 6.90208C177.215 8.57941 176.936 10.2911 176.668 11.9432L176.611 12.2961V12.3603C176.059 15.7585 175.488 19.2712 175.177 22.7954C175.147 23.1437 175.1 23.4989 175.05 23.8747C174.836 25.4787 174.595 27.2729 175.731 28.7738C176.468 29.7385 177.631 30.3319 179.195 30.5336L179.89 30.623C181.695 30.8521 183.558 31.095 185.383 31.3722C185.499 31.3906 185.756 31.457 185.983 31.5143C186.715 31.7306 187.469 31.856 188.231 31.8878C188.831 31.9007 189.424 31.7537 189.949 31.4616C190.734 31.0128 191.321 30.2808 191.592 29.4131C192.274 30.6596 193.085 31.8993 194.206 32.7288C195.045 33.3515 196.063 33.6814 197.106 33.6683C198.696 33.6683 200.169 32.9808 201.396 32.3186C201.56 32.2292 201.796 32.1124 202.078 31.9772C204.351 30.8452 206.289 29.7637 206.792 27.9924C207.083 26.9704 206.885 25.8385 206.237 24.805C205.837 24.1703 205.158 23.492 203.99 22.3463C203.208 21.581 202.321 20.7102 201.619 19.8991C201.328 19.5698 201.06 19.2215 200.815 18.8565C201.042 18.7259 201.317 18.5838 201.592 18.4371C204.167 17.0623 207.692 15.1718 208.028 12.1861C208.255 10.0872 207.169 7.84615 204.678 5.33246C204.365 5.01624 203.403 4.04695 201.965 4.04695C200.942 4.04695 200.146 4.52128 199.351 4.97957L199.187 5.0781C197.893 5.84958 196.645 6.69815 195.451 7.6193C195.561 7.03994 195.551 6.44386 195.42 5.86878C195.29 5.2937 195.043 4.75214 194.694 4.27839C194.176 3.57034 193.331 3.17164 191.488 2.7546C190.463 2.52545 189.126 2.29631 187.515 2.06717C184.808 1.67992 181.818 1.37974 181.049 1.37974L181.045 1.37515Z" />
</svg>
